<svg width="1195" height="338" viewBox="0 0 1195 338" fill="none" xmlns="http://www.w3.org/2000/svg">
<style>
    path {
        fill: none;
        stroke: #FFFFFF;
        stroke-width: 1;
        animation: dash 2.5s linear forwards;
    }
    @keyframes dash {
        0% {
            fill: transparent;
        }
        80% {
            fill: transparent;
            stroke-dashoffset: 0;
        }
        100% {
            fill: #FFFFFF;
            stroke-dashoffset: 0;
        }
    }
</style>
<g opacity="0.6">
<path stroke-dasharray="418.111" stroke-dashoffset="418.111" d="M835.973 256.623H673.346C673.346 278.194 681.913 298.881 697.162 314.134C712.411 329.386 733.094 337.955 754.659 337.955C776.225 337.955 796.908 329.386 812.157 314.134C827.406 298.881 835.973 278.194 835.973 256.623Z"/>
<path stroke-dasharray="290.525" stroke-dashoffset="290.525" d="M374.252 314.072L431.746 256.565L489.318 314.072C481.766 321.635 472.798 327.635 462.926 331.729C453.054 335.822 442.472 337.929 431.785 337.929C421.098 337.929 410.516 335.822 400.644 331.729C390.772 327.635 381.804 321.635 374.252 314.072Z"/>
<path stroke-dasharray="226.517" stroke-dashoffset="226.517" d="M835.974 232.779C835.987 222.097 833.889 211.517 829.801 201.648C825.714 191.779 819.716 182.816 812.154 175.272L754.66 232.779H835.974Z"/>
<path stroke-dasharray="226.515" stroke-dashoffset="226.515" d="M697.166 175.272C689.603 182.816 683.606 191.779 679.518 201.648C675.43 211.517 673.333 222.097 673.346 232.779H754.659L697.166 175.272Z"/>
<path stroke-dasharray="418.126" stroke-dashoffset="418.126" d="M1113.69 256.565C1113.69 278.134 1122.26 298.819 1137.51 314.069C1152.75 329.32 1173.44 337.887 1195 337.887V175.233C1173.43 175.233 1152.75 183.802 1137.5 199.055C1122.25 214.307 1113.69 234.995 1113.69 256.565Z"/>
<path stroke-dasharray="418.124" stroke-dashoffset="418.124" d="M1102.57 256.565C1102.57 234.995 1094 214.308 1078.76 199.055C1063.51 183.802 1042.82 175.233 1021.26 175.233V337.888C1042.82 337.888 1063.5 329.32 1078.75 314.069C1094 298.819 1102.57 278.134 1102.57 256.565Z"/>
<path stroke-dasharray="609.702" stroke-dashoffset="609.702" d="M580.917 175.263C570.236 175.263 559.66 177.367 549.793 181.457C539.926 185.546 530.96 191.539 523.409 199.095C515.858 206.65 509.869 215.62 505.785 225.491C501.7 235.362 499.6 245.941 499.604 256.624H580.888L523.423 314.072C530.963 321.638 539.925 327.638 549.792 331.726C559.659 335.815 570.237 337.912 580.917 337.897C602.483 337.897 623.165 329.328 638.415 314.076C653.664 298.823 662.231 278.136 662.231 256.565C662.231 234.995 653.664 214.307 638.415 199.055C623.165 183.802 602.483 175.233 580.917 175.233V175.263Z"/>
<path stroke-dasharray="418.128" stroke-dashoffset="418.128" d="M0.216797 256.565C0.219405 278.134 8.78751 298.819 24.0365 314.069C39.2855 329.32 59.9664 337.887 81.5305 337.887V175.233C59.9647 175.233 39.2823 183.802 24.033 199.055C8.78374 214.307 0.216797 234.995 0.216797 256.565Z"/>
<path stroke-dasharray="547.663" stroke-dashoffset="547.663" d="M928.823 337.887C918.07 338.005 907.401 335.989 897.432 331.955C887.464 327.921 878.394 321.949 870.748 314.385C863.103 306.822 857.033 297.816 852.891 287.89C848.748 277.965 846.615 267.315 846.615 256.56C846.615 245.804 848.748 235.155 852.891 225.229C857.033 215.303 863.103 206.297 870.748 198.734C878.394 191.17 887.464 185.198 897.432 181.164C907.401 177.13 918.07 175.114 928.823 175.232V256.564H1010.14C1010.14 267.245 1008.04 277.821 1003.95 287.689C999.864 297.557 993.874 306.522 986.323 314.074C978.772 321.626 969.807 327.616 959.941 331.702C950.075 335.788 939.501 337.889 928.823 337.887Z"/>
<path stroke-dasharray="826.445" stroke-dashoffset="826.445" d="M266.395 253.672V175.232C255.643 175.114 244.973 177.13 235.004 181.164C225.036 185.198 215.966 191.17 208.321 198.734C200.675 206.297 194.605 215.303 190.463 225.229C186.32 235.155 184.188 245.804 184.188 256.56C184.188 267.315 186.32 277.965 190.463 287.89C194.605 297.816 200.675 306.822 208.321 314.385C215.966 321.949 225.036 327.921 235.004 331.955C244.973 335.989 255.643 338.005 266.395 337.887V259.457C267.142 280.508 276.027 300.449 291.18 315.078C306.333 329.708 326.57 337.885 347.63 337.887V175.232C326.569 175.235 306.33 183.413 291.177 198.044C276.024 212.676 267.139 232.619 266.395 253.672Z"/>
<path stroke-dasharray="419.927" stroke-dashoffset="419.927" d="M92.6445 175.232V337.887C103.397 338.005 114.067 335.989 124.035 331.955C134.004 327.921 143.074 321.949 150.719 314.385C158.365 306.822 164.434 297.816 168.577 287.89C172.719 277.965 174.852 267.315 174.852 256.56C174.852 245.804 172.719 235.155 168.577 225.229C164.434 215.303 158.365 206.297 150.719 198.734C143.074 191.17 134.004 185.198 124.035 181.164C114.067 177.13 103.397 175.114 92.6445 175.232Z"/>
<path stroke-dasharray="290.394" stroke-dashoffset="290.394" d="M374.252 199.047C381.803 191.494 390.767 185.503 400.632 181.415C410.498 177.328 421.072 175.224 431.751 175.224C442.429 175.224 453.003 177.328 462.869 181.415C472.735 185.503 481.699 191.494 489.25 199.047L431.785 256.564L374.252 199.047Z"/>
<path stroke-dasharray="290.308" stroke-dashoffset="290.308" d="M429.452 163.803C407.893 163.803 387.217 155.239 371.969 139.995C356.721 124.751 348.149 104.074 348.139 82.5103H429.452V163.803Z"/>
<path stroke-dasharray="290.371" stroke-dashoffset="290.371" d="M880.485 82.3606H799.182V163.693C809.859 163.693 820.433 161.589 830.298 157.501C840.162 153.414 849.126 147.423 856.676 139.87C864.225 132.318 870.214 123.352 874.299 113.484C878.385 103.617 880.487 93.0408 880.485 82.3606Z"/>
<path stroke-dasharray="418.191" stroke-dashoffset="418.191" d="M957.728 82.5078C936.162 82.5078 915.48 91.0767 900.23 106.329C884.981 121.582 876.414 142.269 876.414 163.84H1039.08C1039.08 153.156 1036.98 142.577 1032.89 132.706C1028.8 122.836 1022.81 113.868 1015.25 106.316C1007.7 98.7626 998.727 92.7726 988.857 88.6876C978.987 84.6025 968.409 82.5027 957.728 82.5078Z"/>
<path stroke-dasharray="290.387" stroke-dashoffset="290.387" d="M706.743 82.3606V163.693H625.43C625.43 142.122 633.997 121.435 649.246 106.182C664.495 90.9295 685.178 82.3606 706.743 82.3606Z"/>
<path stroke-dasharray="290.389" stroke-dashoffset="290.389" d="M533.002 82.3606V163.693H614.316C614.316 142.122 605.749 121.435 590.499 106.182C575.25 90.9295 554.568 82.3606 533.002 82.3606Z"/>
<path stroke-dasharray="418.188" stroke-dashoffset="418.188" d="M521.88 82.5092C521.88 104.08 513.313 124.767 498.064 140.02C482.815 155.272 462.132 163.841 440.566 163.841V1.15747C451.246 1.15747 461.822 3.26183 471.688 7.35038C481.555 11.4389 490.52 17.4316 498.071 24.986C505.622 32.5405 511.611 41.5088 515.696 51.3787C519.781 61.2486 521.883 71.8268 521.88 82.5092Z"/>
<path stroke-dasharray="418.188" stroke-dashoffset="418.188" d="M81.9629 82.5087C81.9629 104.079 90.5298 124.766 105.779 140.019C121.028 155.272 141.711 163.841 163.277 163.841V1.15698C152.597 1.15698 142.021 3.26134 132.155 7.34989C122.288 11.4384 113.323 17.4311 105.772 24.9855C98.2212 32.54 92.2321 41.5083 88.1469 51.3782C84.0616 61.2481 81.9603 71.8264 81.9629 82.5087Z"/>
<path stroke-dasharray="418.187" stroke-dashoffset="418.187" d="M81.8665 82.5087C81.8691 71.8247 79.7671 61.2449 75.6807 51.3737C71.5942 41.5025 65.6033 32.5333 58.0503 24.9786C50.4973 17.4239 41.5302 11.4316 31.6612 7.34425C21.7922 3.25686 11.2148 1.1544 0.533203 1.15698V163.821C11.2115 163.824 21.7857 161.722 31.6521 157.638C41.5185 153.553 50.4839 147.564 58.0364 140.013C65.5889 132.463 71.5806 123.498 75.6694 113.632C79.7582 103.765 81.8639 93.1894 81.8665 82.5087Z"/>
<path stroke-dasharray="418.191" stroke-dashoffset="418.191" d="M957.728 82.3709C968.409 82.376 978.987 80.2761 988.857 76.1911C998.727 72.1061 1007.7 66.1161 1015.25 58.5632C1022.81 51.0103 1028.8 42.0426 1032.89 32.1723C1036.98 22.3021 1039.08 11.7228 1039.08 1.03882H876.414C876.414 22.6094 884.981 43.2965 900.23 58.5493C915.48 73.802 936.162 82.3709 957.728 82.3709Z"/>
<path stroke-dasharray="290.373" stroke-dashoffset="290.373" d="M799.183 1.03882C788.505 1.03753 777.931 3.14003 768.066 7.22628C758.201 11.3125 749.237 17.3025 741.686 24.8541C734.135 32.4057 728.145 41.371 724.059 51.2381C719.972 61.1052 717.869 71.6808 717.869 82.361H799.183V1.03882Z"/>
<path stroke-dasharray="290.367" stroke-dashoffset="290.367" d="M625.43 1.03882H706.743V82.361C685.179 82.361 664.498 73.7935 649.249 58.5429C634 43.2923 625.432 22.6077 625.43 1.03882Z"/>
<path stroke-dasharray="290.368" stroke-dashoffset="290.368" d="M614.316 1.03882H533.002V82.361C554.566 82.361 575.247 73.7935 590.496 58.5429C605.745 43.2923 614.313 22.6077 614.316 1.03882Z"/>
<path stroke-dasharray="674.639" stroke-dashoffset="674.639" d="M255.714 82.361C255.711 60.7921 247.143 40.1075 231.894 24.857C216.645 9.60637 195.964 1.03882 174.4 1.03882V83.4136C174.531 104.748 183.041 125.176 198.095 140.291C213.148 155.407 233.538 163.998 254.867 164.212C276.196 164.427 296.754 156.247 312.108 141.437C327.461 126.627 336.38 106.374 336.939 85.0465H336.998V1.03882C315.438 1.04404 294.764 9.6142 279.52 24.8645C264.277 40.1148 255.714 60.7964 255.714 82.361Z"/>
<path stroke-dasharray="609.786" stroke-dashoffset="609.786" d="M1194.47 82.3314C1194.47 63.5121 1187.95 45.2741 1176.02 30.7252C1164.08 16.1762 1147.47 6.21645 1129.02 2.54304C1110.57 -1.13038 1091.41 1.70983 1074.82 10.5797C1058.22 19.4496 1045.22 33.8003 1038.01 51.1865C1030.81 68.5727 1029.86 87.9187 1035.32 105.928C1040.78 123.937 1052.32 139.495 1067.96 149.952C1083.61 160.408 1102.39 165.115 1121.11 163.271C1139.84 161.427 1157.35 153.145 1170.65 139.838L1113.16 82.3314H1194.47Z"/>
</g>
</svg>
